# xmcd
#
# Track frame offsets: 
#        150
#        20697
#        35795
#        51880
#        74847
#        89807
#        105047
#        118210
#        132680
#        152150
#        166912
#        181580
#        197902
#        212122
#        231230
#
# Disc length: 3261 seconds
#
# Revision: 4
# Processed by: cddbd v1.5.2PL0 Copyright (c) Steve Scherf et al.
# Submitted via: ExactAudioCopy v1.0b6
#
DISCID=e10cbb0f
DTITLE=Louis Armstrong - Love Songs
DYEAR=2000
DGENRE=Jazz
TTITLE0=I'm Crazy 'Bout My Baby (1955)
TTITLE1=Keepin' Out Of Mischief Now (1955)
TTITLE2=I Can't Give You Anything But Love (1929)
TTITLE3=Squeeze Me (1955)
TTITLE4=Body and Soul (1930)
TTITLE5=I'm Confessin' (That I Love You) (1930)
TTITLE6=Honeysuckle Rose (1955)
TTITLE7=I've Got A Feeling I'm Falling (1955)
TTITLE8=One Moment Worth Years (1961)
TTITLE9=My Sweet (1930)
TTITLE10=I'm In The Market For You (1930)
TTITLE11=If I Could Be With You (One Hour Tonight) (1930)
TTITLE12=Ko Ko Mo (I Love You So) (Live 1958)
TTITLE13=All Of Me (Live 1955)
TTITLE14=I Didn't Know Until You Told Me (1961)
EXTD=\n YEAR: 2000
EXTT0=
EXTT1=
EXTT2=
EXTT3=
EXTT4=
EXTT5=
EXTT6=
EXTT7=
EXTT8=
EXTT9=
EXTT10=
EXTT11=
EXTT12=
EXTT13=
EXTT14=
PLAYORDER=
